# xmcd
#
# Track frame offsets:
# 182
# 17462
# 34357
# 51497
# 67532
# 88567
# 102580
# 116832
# 133220
# 151895
# 165137
# 176882
# 191615
# 207405
# 219875
# 233165
#
# Disc length: 3297 seconds
#
#
# Revision: 1
# Processed by: cddbd v1.5.1PL2 Copyright (c) Steve Scherf et al.
# Submitted via: FreeRIP 2.945 
#
DISCID=d80cdf10
DTITLE=Lorrie Morgan - Country Legends
DYEAR=2002
DGENRE=Country
TTITLE0=Heart Over Mind
TTITLE1=Dear Me
TTITLE2=Half Enough
TTITLE3=Five Minutes
TTITLE4=Something In Red
TTITLE5=We Both Walk
TTITLE6=Tears On My Pillow
TTITLE7=She Walked Beside The Wagon
TTITLE8=Don't Touch Me
TTITLE9=Except For Monday
TTITLE10=Eight Days A Week
TTITLE11=Out Of Your Shoes
TTITLE12=Exit 99
TTITLE13=What Part Of No
TTITLE14=She's Takin' Him Back Again
TTITLE15=Crying Time
EXTD=RCA Records
EXTT0=
EXTT1=
EXTT2=
EXTT3=
EXTT4=
EXTT5=
EXTT6=
EXTT7=
EXTT8=
EXTT9=
EXTT10=
EXTT11=
EXTT12=
EXTT13=
EXTT14=
EXTT15=
PLAYORDER=
